<svg width="61" height="60" viewBox="0 0 61 60" fill="none" xmlns="http://www.w3.org/2000/svg">
<path d="M59.9564 4.31877L52.4561 52.964C52.2803 54.1047 51.5918 55.0992 50.5846 55.6652C50.0169 55.9838 49.381 56.1453 48.747 56.1453C48.2562 56.1453 47.7721 56.0497 47.3067 55.8556L32.939 49.8672L26.9787 58.8076C26.5216 59.5898 25.7599 60 24.9395 60C23.5918 60 22.5019 58.9101 22.5019 57.5625V46.2912C22.5019 45.4574 22.7799 44.6471 23.292 43.9896L48.7528 11.2493L14.3337 42.2224L2.30866 37.2067C0.990023 36.6559 0.0963789 35.4137 0.00848522 33.8786C-0.0794085 32.3434 0.649406 31.0988 1.89058 30.3898L54.3924 0.494893C55.6452 -0.221015 57.1909 -0.155154 58.3769 0.659661C59.5629 1.47448 60.179 2.8961 59.9564 4.31877Z" fill="#F6D42A"/>
</svg>
