<svg width="19" height="16" viewBox="0 0 19 16" fill="none" xmlns="http://www.w3.org/2000/svg">
<path d="M11.1822 0.420622L17.6634 6.82216C17.9186 7.07019 18.0454 7.39954 18.0475 7.72966C18.0495 8.05978 17.9257 8.38988 17.6757 8.64265L11.2741 15.1239C10.774 15.6302 9.95879 15.6353 9.45244 15.1352C8.9461 14.635 8.94105 13.8198 9.44117 13.3135L13.6592 9.04514L1.30783 9.12156C0.595658 9.12597 0.0522192 8.5524 0.0480419 7.87726C0.0438647 7.20212 0.579716 6.54941 1.29189 6.54501L13.6433 6.46858L9.37374 2.25157C8.86739 1.75145 8.86234 0.936216 9.36246 0.429869C9.86258 -0.0764782 10.6758 -0.0794974 11.1822 0.420622Z" fill="white"/>
</svg>
