<svg width="61" height="60" viewBox="0 0 61 60" fill="none" xmlns="http://www.w3.org/2000/svg">
<path d="M13.4307 60H0.991094V19.9411H13.4307V60ZM7.20418 14.4767C3.22641 14.4767 0 11.1819 0 7.20418C2.84712e-08 5.29351 0.75901 3.4611 2.11006 2.11005C3.4611 0.759009 5.29351 0 7.20418 0C9.11485 0 10.9473 0.759009 12.2983 2.11005C13.6493 3.4611 14.4084 5.29351 14.4084 7.20418C14.4084 11.1819 11.1806 14.4767 7.20418 14.4767ZM59.9879 60H47.5752V40.4996C47.5752 35.8521 47.4814 29.8922 41.1076 29.8922C34.6401 29.8922 33.649 34.9414 33.649 40.1647V60H21.2228V19.9411H33.1534V25.4055H33.3275C34.9883 22.2581 39.0451 18.9366 45.0974 18.9366C57.687 18.9366 60.0013 27.2269 60.0013 37.995V60H59.9879Z" fill="#F6D42A"/>
</svg>
