<svg width="25" height="30" viewBox="0 0 25 30" fill="none" xmlns="http://www.w3.org/2000/svg">
<g clip-path="url(#clip0_2_9)">
<path d="M22.3214 1.875H2.67857C1.96817 1.875 1.28686 2.17132 0.784535 2.69876C0.282206 3.22621 0 3.94158 0 4.6875L0 25.3125C0 26.0584 0.282206 26.7738 0.784535 27.3012C1.28686 27.8287 1.96817 28.125 2.67857 28.125H10.3376V19.2006H6.82199V15H10.3376V11.7984C10.3376 8.15684 12.4023 6.14531 15.5647 6.14531C17.0792 6.14531 18.6629 6.42891 18.6629 6.42891V10.0031H16.918C15.1987 10.0031 14.6624 11.1234 14.6624 12.2725V15H18.5006L17.8867 19.2006H14.6624V28.125H22.3214C23.0318 28.125 23.7131 27.8287 24.2155 27.3012C24.7178 26.7738 25 26.0584 25 25.3125V4.6875C25 3.94158 24.7178 3.22621 24.2155 2.69876C23.7131 2.17132 23.0318 1.875 22.3214 1.875Z" fill="white"/>
</g>
<defs>
<clipPath id="clip0_2_9">
<rect width="25" height="30" fill="white"/>
</clipPath>
</defs>
</svg>
