<svg width="25" height="30" viewBox="0 0 25 30" fill="none" xmlns="http://www.w3.org/2000/svg">
<g clip-path="url(#clip0_2_6)">
<path d="M12.5 11.8746C11.9113 11.8748 11.336 12.0583 10.8466 12.4019C10.3573 12.7455 9.97593 13.2337 9.75081 13.8048C9.52569 14.3759 9.46691 15.0043 9.58188 15.6105C9.69686 16.2166 9.98044 16.7734 10.3968 17.2104C10.8131 17.6474 11.3435 17.9449 11.9208 18.0654C12.4982 18.1859 13.0966 18.124 13.6405 17.8874C14.1843 17.6508 14.6491 17.2502 14.9761 16.7363C15.3031 16.2223 15.4777 15.6181 15.4777 15C15.4771 14.1711 15.1631 13.3763 14.6048 12.7903C14.0465 12.2043 13.2894 11.8749 12.5 11.8746ZM19.4593 9.47227C19.3077 9.06905 19.0789 8.70282 18.787 8.39631C18.4951 8.0898 18.1463 7.84954 17.7623 7.69043C16.5904 7.20469 13.8002 7.31367 12.5 7.31367C11.1998 7.31367 8.41239 7.20059 7.23717 7.69043C6.85315 7.84954 6.50436 8.0898 6.21245 8.39631C5.92053 8.70282 5.69171 9.06905 5.54018 9.47227C5.07812 10.7027 5.18136 13.6354 5.18136 14.9994C5.18136 16.3635 5.07812 19.2926 5.54241 20.5271C5.69394 20.9304 5.92276 21.2966 6.21468 21.6031C6.5066 21.9096 6.85538 22.1499 7.2394 22.309C8.41127 22.7947 11.2015 22.6857 12.5022 22.6857C13.803 22.6857 16.5893 22.7988 17.7645 22.309C18.1485 22.1499 18.4973 21.9096 18.7892 21.6031C19.0811 21.2966 19.31 20.9304 19.4615 20.5271C19.9275 19.2967 19.8203 16.3641 19.8203 15C19.8203 13.6359 19.9275 10.7074 19.4615 9.47285L19.4593 9.47227ZM12.5 19.8047C11.595 19.8047 10.7103 19.5229 9.95777 18.995C9.20527 18.467 8.61876 17.7166 8.27243 16.8387C7.92609 15.9607 7.83547 14.9947 8.01203 14.0627C8.18859 13.1306 8.6244 12.2745 9.26435 11.6026C9.90431 10.9306 10.7197 10.473 11.6073 10.2876C12.4949 10.1022 13.415 10.1974 14.2511 10.561C15.0873 10.9247 15.8019 11.5405 16.3047 12.3307C16.8075 13.1208 17.0759 14.0497 17.0759 15C17.0766 15.6312 16.9588 16.2563 16.7291 16.8396C16.4994 17.4229 16.1623 17.9528 15.7373 18.3991C15.3122 18.8455 14.8075 19.1993 14.252 19.4405C13.6965 19.6817 13.1011 19.8055 12.5 19.8047ZM17.2645 11.1152C17.0532 11.1153 16.8467 11.0497 16.671 10.9265C16.4952 10.8034 16.3583 10.6282 16.2773 10.4233C16.1964 10.2184 16.1752 9.9929 16.2163 9.77532C16.2575 9.55773 16.3592 9.35785 16.5085 9.20095C16.6579 9.04405 16.8482 8.93718 17.0554 8.89386C17.2626 8.85054 17.4774 8.87271 17.6726 8.95758C17.8678 9.04244 18.0346 9.18619 18.152 9.37063C18.2694 9.55507 18.332 9.77192 18.332 9.99375C18.3326 10.1411 18.3055 10.287 18.2522 10.4233C18.199 10.5596 18.1206 10.6835 18.0216 10.7879C17.9227 10.8923 17.805 10.9752 17.6755 11.0318C17.5459 11.0883 17.407 11.1175 17.2667 11.1176L17.2645 11.1152ZM22.3214 1.875H2.67857C1.96817 1.875 1.28686 2.17132 0.784535 2.69876C0.282206 3.22621 0 3.94158 0 4.6875L0 25.3125C0 26.0584 0.282206 26.7738 0.784535 27.3012C1.28686 27.8287 1.96817 28.125 2.67857 28.125H22.3214C23.0318 28.125 23.7131 27.8287 24.2155 27.3012C24.7178 26.7738 25 26.0584 25 25.3125V4.6875C25 3.94158 24.7178 3.22621 24.2155 2.69876C23.7131 2.17132 23.0318 1.875 22.3214 1.875ZM21.3661 18.8672C21.2941 20.3689 20.9676 21.6996 19.9235 22.793C18.8795 23.8863 17.6133 24.2361 16.1847 24.3076C14.7109 24.3949 10.2924 24.3949 8.81864 24.3076C7.38839 24.232 6.12556 23.8887 5.0798 22.793C4.03404 21.6973 3.70536 20.366 3.63728 18.8672C3.55413 17.3191 3.55413 12.6791 3.63728 11.1328C3.70926 9.63105 4.03181 8.30039 5.0798 7.20703C6.12779 6.11367 7.39397 5.76797 8.81864 5.69648C10.2924 5.60918 14.7109 5.60918 16.1847 5.69648C17.615 5.77207 18.8817 6.11543 19.9235 7.21113C20.9654 8.30684 21.298 9.63809 21.3661 11.1398C21.4492 12.682 21.4492 17.318 21.3661 18.8672Z" fill="white"/>
</g>
<defs>
<clipPath id="clip0_2_6">
<rect width="25" height="30" fill="white"/>
</clipPath>
</defs>
</svg>
