<svg width="26" height="23" viewBox="0 0 26 23" fill="none" xmlns="http://www.w3.org/2000/svg">
<path d="M0 7.69414V7.39961C0 3.85 2.56547 0.822423 6.06328 0.239454C8.3332 -0.145976 10.7352 0.608633 12.3906 2.26664L13 2.875L13.5637 2.26664C15.2648 0.608633 17.6211 -0.145976 19.9367 0.239454C23.4355 0.822423 26 3.85 26 7.39961V7.69414C26 9.80156 25.1266 11.8176 23.5828 13.2547L14.4066 21.8215C14.0258 22.177 13.523 22.375 13 22.375C12.477 22.375 11.9742 22.177 11.5934 21.8215L2.41668 13.2547C0.874961 11.8176 1.52344e-05 9.80156 1.52344e-05 7.69414H0Z" fill="#E5E5E5"/>
</svg>
