<svg width="170" height="170" viewBox="0 0 170 170" fill="none" xmlns="http://www.w3.org/2000/svg">
<path d="M0 85C0 38.0508 38.0508 0 85 0C131.949 0 170 38.0508 170 85C170 131.949 131.949 170 85 170C38.0508 170 0 131.949 0 85ZM52.8926 129.061C56.9434 116.012 69.6934 106.25 85 106.25C100.307 106.25 113.057 116.012 117.107 129.061C117.971 131.883 120.959 133.443 123.748 132.58C126.57 131.717 128.131 128.729 127.268 125.939C121.789 108.275 104.855 95.3262 85 95.3262C65.1777 95.3262 48.2109 108.275 42.7324 125.939C41.8691 128.729 43.4297 131.717 46.252 132.58C49.041 133.443 52.0293 131.883 52.8926 129.061ZM58.5703 58.4375C52.6934 58.4375 47.9453 63.1855 47.9453 69.0625C47.9453 74.9395 52.6934 79.6875 58.5703 79.6875C64.4141 79.6875 69.1953 74.9395 69.1953 69.0625C69.1953 63.1855 64.4141 58.4375 58.5703 58.4375ZM111.695 79.6875C117.539 79.6875 122.32 74.9395 122.32 69.0625C122.32 63.1855 117.539 58.4375 111.695 58.4375C105.818 58.4375 101.07 63.1855 101.07 69.0625C101.07 74.9395 105.818 79.6875 111.695 79.6875Z" fill="#828282" fill-opacity="0.15"/>
</svg>
