<svg width="25" height="30" viewBox="0 0 25 30" fill="none" xmlns="http://www.w3.org/2000/svg">
<path d="M25 4.6875V25.3125C25 26.8652 23.8002 28.125 22.3214 28.125H8.61607C9.16295 27.1641 9.86607 25.7812 10.1451 24.6504C10.3125 23.9766 10.9989 21.2285 10.9989 21.2285C11.4453 22.125 12.7511 22.8809 14.1406 22.8809C18.2757 22.8809 21.25 18.8906 21.25 13.9336C21.25 9.18164 17.5558 5.625 12.8013 5.625C6.88616 5.625 3.75 9.79102 3.75 14.332C3.75 16.4414 4.82143 19.0664 6.52902 19.9043C6.79129 20.0332 6.92522 19.9746 6.98661 19.7109C7.03125 19.5117 7.26562 18.5332 7.36607 18.082C7.39955 17.9355 7.38281 17.8125 7.27121 17.6719C6.70759 16.9512 6.25 15.627 6.25 14.3906C6.25 11.2148 8.53795 8.14453 12.4386 8.14453C15.8036 8.14453 18.1641 10.5527 18.1641 13.998C18.1641 17.8887 16.2946 20.584 13.856 20.584C12.5112 20.584 11.5067 19.418 11.8248 17.9824C12.2098 16.2715 12.9576 14.4258 12.9576 13.1895C12.9576 10.084 8.74442 10.5117 8.74442 14.6543C8.74442 15.9258 9.15179 16.793 9.15179 16.793C7.39955 24.5742 7.13728 24.6738 7.5 28.0781L7.62277 28.125H2.67857C1.19978 28.125 0 26.8652 0 25.3125V4.6875C0 3.13477 1.19978 1.875 2.67857 1.875H22.3214C23.8002 1.875 25 3.13477 25 4.6875Z" fill="white"/>
</svg>
